<svg width="456" height="134" viewBox="0 0 456 134" fill="none" xmlns="http://www.w3.org/2000/svg">
<path d="M53.7519 35.7998H76.7919V47.3198H58.3599L58.0719 47.8958L73.4319 75.9278C76.5679 81.5598 78.1359 85.8478 78.1359 88.7918C78.1359 95.2558 75.9919 99.9918 71.7039 103H46.2639V91.8638H66.1359L66.4239 91.2878L49.1439 60.2798C46.6479 55.7998 45.3999 52.1518 45.3999 49.3358C45.3999 42.6798 48.1839 38.1678 53.7519 35.7998Z" fill="black"/>
<path d="M84.8267 103V35.7998H97.9787V64.1198H98.4587L110.459 35.7998H123.995L109.979 67.8638L124.667 103H110.075L98.6507 73.6238H97.9787V103H84.8267Z" fill="black"/>
<path d="M152.88 103H138.864V80.6318L124.656 35.7998H137.712L143.664 56.2478L145.68 68.0558H146.064L148.08 56.2478L154.032 35.7998H167.088L152.88 80.6318V103Z" fill="black"/>
<path d="M167.125 123.64V112.696H207.061V123.64H167.125Z" fill="black"/>
<path d="M222.518 47.3198H208.022V35.7998H250.07V47.3198H235.574V103H222.518V47.3198Z" fill="black"/>
<path d="M255.639 103V35.7998H290.103V47.3198H268.791V63.3518H287.799V74.4878H268.791V91.8638H290.487V103H255.639Z" fill="black"/>
<path d="M326.528 103L324.512 92.3438H309.344L307.328 103H294.272L307.232 35.7998H327.104L339.392 103H326.528ZM316.736 48.2798L312.992 70.6478L310.88 82.0718H322.88L320.672 70.6478L316.928 48.2798H316.736Z" fill="black"/>
<path d="M369.463 72.2798H369.079H369.463L374.551 51.2558L378.679 35.7998H390.679L394.999 103H382.423L380.599 66.3278H380.119L373.207 93.3998H365.335L358.423 66.3278H357.943L356.119 103H343.543L347.863 35.7998H359.863L363.991 51.2558L369.079 72.2798H369.463Z" fill="black"/>
</svg>
